<svg xmlns="http://www.w3.org/2000/svg" width="472" height="61" viewBox="0 0 472 61" version="1.1"><path d="M 65.448 8.275 C 65.179 8.976, 65.082 19.213, 65.232 31.025 L 65.504 52.500 66.002 29.749 C 66.276 17.236, 66.373 6.999, 66.219 6.999 C 66.064 7, 65.717 7.574, 65.448 8.275 M 92.824 10.950 C 93.152 14.390, 92.920 14.898, 90.848 15.271 C 88.620 15.671, 88.627 15.688, 91 15.596 C 93.086 15.516, 93.553 14.940, 93.823 12.123 C 94 10.265, 93.765 8.365, 93.299 7.899 C 92.833 7.433, 92.619 8.806, 92.824 10.950 M 107.370 17 C 107.370 22.775, 107.535 25.138, 107.737 22.250 C 107.939 19.363, 107.939 14.638, 107.737 11.750 C 107.535 8.863, 107.370 11.225, 107.370 17 M 144.231 29.750 L 144.500 52.500 150 52.500 L 155.500 52.500 155.770 30.570 C 155.919 18.509, 155.694 8.293, 155.270 7.868 C 154.847 7.444, 154.629 17.200, 154.787 29.548 L 155.073 52 150 52 L 144.927 52 145.213 29.499 C 145.371 17.124, 145.154 6.999, 144.731 6.999 C 144.308 7, 144.083 17.237, 144.231 29.750 M 223.448 8.276 C 223.178 8.978, 223.081 18.990, 223.231 30.526 L 223.504 51.500 224.002 29.249 C 224.276 17.011, 224.373 6.999, 224.219 6.999 C 224.064 7, 223.717 7.574, 223.448 8.276 M 265.471 29.749 L 265.500 52.500 270.500 52.578 L 275.500 52.656 270.769 52.276 L 266.037 51.897 265.740 29.448 L 265.442 6.999 265.471 29.749 M 414.998 29.298 L 415.497 51.500 415.769 30.070 C 415.918 18.284, 415.694 8.293, 415.270 7.869 C 414.847 7.444, 414.724 17.087, 414.998 29.298 M 251.150 11.206 L 251 14.912 243.750 15.257 L 236.500 15.603 243.781 15.801 C 251.733 16.018, 252.497 15.493, 251.724 10.334 C 251.363 7.922, 251.277 8.052, 251.150 11.206 M 337.162 13.543 C 335.487 17.220, 335.807 18.005, 337.618 14.662 C 338.464 13.100, 338.969 11.636, 338.741 11.407 C 338.512 11.179, 337.802 12.140, 337.162 13.543 M 79.762 15.707 C 81.006 15.946, 82.806 15.937, 83.762 15.687 C 84.718 15.437, 83.700 15.241, 81.500 15.252 C 79.300 15.263, 78.518 15.468, 79.762 15.707 M 344 23 C 341.788 27.400, 340.203 31, 340.478 31 C 340.753 31, 342.788 27.400, 345 23 C 347.212 18.600, 348.797 15, 348.522 15 C 348.247 15, 346.212 18.600, 344 23 M 440.921 16.750 C 439.794 18.239, 439.806 18.313, 440.998 17.250 C 441.769 16.563, 443.570 16, 445 16 C 446.430 16, 448.231 16.563, 449.002 17.250 C 450.194 18.313, 450.206 18.239, 449.079 16.750 C 448.351 15.787, 446.515 15, 445 15 C 443.485 15, 441.649 15.787, 440.921 16.750 M 22.409 17.377 C 22.118 18.134, 22.051 20.947, 22.260 23.627 C 22.639 28.496, 22.640 28.495, 22.820 22.630 L 23 16.760 29.009 17.194 C 32.314 17.433, 34.451 17.269, 33.759 16.830 C 31.576 15.444, 22.992 15.858, 22.409 17.377 M 76.398 20.500 L 76.500 25.500 83.750 25.794 L 91 26.088 91 29.500 L 91 32.912 83.750 33.206 L 76.500 33.500 76.198 38.750 C 76.031 41.638, 76.256 44, 76.698 44.001 C 77.139 44.001, 77.345 41.772, 77.157 39.046 L 76.813 34.091 84.157 33.796 L 91.500 33.500 91.500 29.500 L 91.500 25.500 84.303 25.207 L 77.106 24.915 76.701 20.207 L 76.296 15.500 76.398 20.500 M 285 16.713 C 285.825 17.019, 287.175 17.771, 288 18.384 C 289.303 19.354, 289.320 19.271, 288.128 17.750 C 287.373 16.788, 286.023 16.036, 285.128 16.079 C 283.766 16.145, 283.745 16.249, 285 16.713 M 461 17.450 C 461 18.507, 459.441 18.998, 455.250 19.261 L 449.500 19.622 455.750 19.811 C 461.396 19.982, 462 19.807, 462 18 C 462 16.900, 461.775 16, 461.500 16 C 461.225 16, 461 16.653, 461 17.450 M 170.573 19 C 170.941 20.375, 171.659 22.175, 172.169 23 C 172.813 24.042, 172.892 23.737, 172.427 22 C 172.059 20.625, 171.341 18.825, 170.831 18 C 170.187 16.958, 170.108 17.263, 170.573 19 M 234.402 21.243 L 234.500 25.500 241.750 25.794 L 249 26.088 249 29.500 L 249 32.912 241.750 33.206 L 234.500 33.500 234.186 37.886 C 234.013 40.298, 234.238 42.639, 234.686 43.088 C 235.134 43.536, 235.345 41.696, 235.157 38.997 L 234.813 34.091 242.157 33.796 L 249.500 33.500 249.500 29.500 L 249.500 25.500 242.305 25.207 L 235.111 24.915 234.707 20.950 L 234.304 16.985 234.402 21.243 M 50.086 19.500 C 50.190 21.394, 51.856 24.584, 51.914 23 C 51.945 22.175, 51.533 20.825, 51 20 C 50.467 19.175, 50.055 18.950, 50.086 19.500 M 300.195 21.500 C 300.215 23.150, 300.439 23.704, 300.693 22.731 C 300.947 21.758, 300.930 20.408, 300.656 19.731 C 300.382 19.054, 300.175 19.850, 300.195 21.500 M 322.208 30.468 C 323.962 34.025, 325.563 36.771, 325.764 36.569 C 326.211 36.122, 320.165 24, 319.495 24 C 319.233 24, 320.454 26.911, 322.208 30.468 M 41.286 29.500 C 41.294 32.250, 41.488 33.256, 41.718 31.736 C 41.947 30.216, 41.941 27.966, 41.704 26.736 C 41.467 25.506, 41.279 26.750, 41.286 29.500 M 52.300 30 C 52.300 33.025, 52.487 34.263, 52.716 32.750 C 52.945 31.238, 52.945 28.763, 52.716 27.250 C 52.487 25.738, 52.300 26.975, 52.300 30 M 433.218 29.250 C 434.765 30.762, 436.587 31.986, 437.266 31.970 C 437.945 31.953, 437.600 31.441, 436.500 30.833 C 435.400 30.225, 433.578 29.001, 432.452 28.113 C 431.325 27.226, 431.670 27.738, 433.218 29.250 M 374.605 28.588 C 374.272 29.454, 374 35.052, 374 41.027 L 374 51.890 369.250 52.297 L 364.500 52.704 369.500 52.602 L 374.500 52.500 374.782 40.711 C 374.956 33.436, 375.435 29.151, 376.032 29.520 C 376.564 29.849, 377 29.668, 377 29.118 C 377 27.351, 375.230 26.958, 374.605 28.588 M 402.616 28.558 C 402.287 29.415, 402.449 29.840, 402.979 29.513 C 403.562 29.153, 404.046 33.534, 404.218 40.711 L 404.500 52.500 409 52.582 L 413.500 52.663 409.250 52.277 L 405 51.890 405 40.004 C 405 29.069, 404.092 24.711, 402.616 28.558 M 459.086 31.618 C 460.414 33.333, 461.701 34.557, 461.947 34.338 C 462.193 34.119, 461.106 32.716, 459.533 31.220 L 456.672 28.500 459.086 31.618 M 22.136 35.691 C 22.061 39.096, 22.337 42.091, 22.750 42.346 C 23.163 42.600, 23.368 40.715, 23.208 38.155 C 22.709 30.219, 22.278 29.228, 22.136 35.691 M 107.451 41.500 L 107.500 52.500 120 52.500 L 132.500 52.500 132.619 48.500 L 132.738 44.500 132.309 48.250 L 131.879 52 119.972 52 L 108.066 52 107.734 41.250 L 107.402 30.500 107.451 41.500 M 445.083 34.303 C 445.313 34.469, 446.850 35.396, 448.500 36.362 L 451.500 38.119 449.139 36.059 C 447.841 34.927, 446.303 34, 445.723 34 C 445.142 34, 444.854 34.136, 445.083 34.303 M 38.736 38.256 L 36.971 41.500 38.986 39.139 C 40.700 37.130, 41.616 34.984, 40.750 35.006 C 40.612 35.010, 39.706 36.472, 38.736 38.256 M 277 35.713 C 277.825 36.019, 279.175 36.771, 280 37.384 C 281.303 38.354, 281.320 38.271, 280.128 36.750 C 279.373 35.788, 278.023 35.036, 277.128 35.079 C 275.766 35.145, 275.745 35.249, 277 35.713 M 462.232 39 C 462.232 40.925, 462.438 41.712, 462.689 40.750 C 462.941 39.788, 462.941 38.212, 462.689 37.250 C 462.438 36.288, 462.232 37.075, 462.232 39 M 188.700 39.661 C 188.980 40.391, 189.612 40.740, 190.105 40.435 C 191.474 39.589, 191.170 38.333, 189.595 38.333 C 188.823 38.333, 188.420 38.931, 188.700 39.661 M 439.970 40.944 C 440.543 42.014, 441.505 43.194, 442.109 43.567 C 442.713 43.941, 442.434 43.066, 441.489 41.623 C 439.487 38.568, 438.451 38.105, 439.970 40.944 M 44.500 46.670 C 42.300 48.642, 41.400 49.790, 42.500 49.220 C 44.353 48.260, 49.876 42.948, 48.924 43.042 C 48.691 43.065, 46.700 44.697, 44.500 46.670 M 459.224 46.792 L 456.947 50.500 459.474 47.694 C 460.863 46.151, 462 44.464, 462 43.944 C 462 42.474, 461.663 42.820, 459.224 46.792 M 93.160 47.721 L 93 51.942 79.750 52.253 L 66.500 52.563 79.781 52.782 C 94.398 53.022, 94.484 52.985, 93.730 46.845 C 93.358 43.807, 93.305 43.888, 93.160 47.721 M 251.160 47.722 L 251 51.944 237.250 52.252 L 223.500 52.561 237.281 52.781 C 252.445 53.022, 252.486 53.005, 251.730 46.845 C 251.358 43.808, 251.305 43.888, 251.160 47.722 M 181.068 48.316 C 181.030 48.764, 181.466 50.002, 182.035 51.066 C 182.893 52.669, 184.166 53, 189.476 53 C 192.999 53, 196.092 52.663, 196.349 52.250 C 196.606 51.837, 193.791 51.646, 190.094 51.825 C 183.890 52.125, 183.286 51.971, 182.254 49.825 C 181.639 48.546, 181.105 47.867, 181.068 48.316 M 435.441 50.445 C 436.509 51.300, 437.821 52, 438.358 52 C 439.628 52, 439.061 51.538, 436 50.080 C 433.643 48.958, 433.611 48.978, 435.441 50.445 M 287.872 51.250 C 288.927 52.594, 290.550 52.957, 294.872 52.815 L 300.500 52.630 295.030 52.255 C 292.022 52.049, 288.872 51.345, 288.030 50.690 C 286.691 49.648, 286.671 49.718, 287.872 51.250 M 12.885 52.290 C 13.322 52.724, 17.914 52.946, 23.090 52.783 L 32.500 52.487 22.296 51.993 C 16.683 51.722, 12.449 51.855, 12.885 52.290 M 326.912 52.314 C 327.361 52.762, 329.702 52.979, 332.114 52.796 L 336.500 52.463 331.298 51.982 C 328.437 51.717, 326.464 51.866, 326.912 52.314 M 387.762 52.707 C 389.006 52.946, 390.806 52.937, 391.762 52.687 C 392.718 52.437, 391.700 52.241, 389.500 52.252 C 387.300 52.263, 386.518 52.468, 387.762 52.707 M 442.750 52.723 C 444.538 52.945, 447.462 52.945, 449.250 52.723 C 451.038 52.502, 449.575 52.320, 446 52.320 C 442.425 52.320, 440.962 52.502, 442.750 52.723" stroke="none" fill="#50ab9a" fill-rule="evenodd"/><path d="M 12.501 8.137 C 12.202 8.915, 12.080 18.990, 12.229 30.526 L 12.500 51.500 21.500 51.822 C 33.024 52.235, 39.577 50.798, 44.436 46.792 C 53.281 39.501, 54.632 25.117, 47.389 15.352 C 43.354 9.912, 37.377 7.797, 24.425 7.225 C 15.199 6.818, 12.941 6.991, 12.501 8.137 M 66.695 7.638 C 66.313 8.021, 66 18.158, 66 30.167 L 66 52 79.500 52 L 93 52 93 48 L 93 44 84.448 44 L 75.895 44 76.198 38.750 L 76.500 33.500 83.750 33.206 L 91 32.912 91 29.500 L 91 26.088 83.750 25.794 L 76.500 25.500 76.197 20.782 C 75.923 16.530, 76.128 16.006, 78.273 15.468 C 79.582 15.139, 82.194 14.980, 84.077 15.115 C 85.960 15.249, 88.765 15.279, 90.310 15.180 C 92.920 15.013, 93.099 14.733, 92.810 11.250 L 92.500 7.500 79.945 7.222 C 73.040 7.068, 67.077 7.256, 66.695 7.638 M 107.815 17.698 C 107.642 23.639, 107.650 33.788, 107.834 40.250 L 108.167 52 120.084 52 L 132 52 132 48 L 132 44 125.023 44 L 118.045 44 117.773 25.750 L 117.500 7.500 112.815 7.198 L 108.131 6.896 107.815 17.698 M 145.714 7.620 C 145.321 8.012, 145 18.158, 145 30.167 L 145 52 150.019 52 L 155.038 52 154.769 29.750 L 154.500 7.500 150.464 7.203 C 148.244 7.040, 146.106 7.227, 145.714 7.620 M 168 8.298 C 168 9.358, 179.954 43.924, 182.524 50.293 C 183.134 51.807, 184.269 52.040, 189.810 51.793 L 196.374 51.500 204.066 30 C 208.297 18.175, 211.424 8.134, 211.015 7.686 C 210.606 7.238, 208.298 7.013, 205.886 7.186 L 201.500 7.500 196 23.673 C 192.975 32.568, 190.209 40.133, 189.854 40.485 C 189.499 40.837, 186.649 33.447, 183.521 24.063 L 177.834 7 172.917 7 C 169.553 7, 168 7.410, 168 8.298 M 224.667 7.667 C 224.300 8.033, 224 18.158, 224 30.167 L 224 52 237.500 52 L 251 52 251 48.040 L 251 44.081 242.750 43.790 L 234.500 43.500 234.500 38.500 L 234.500 33.500 241.750 33.206 L 249 32.912 249 29.500 L 249 26.088 241.750 25.794 L 234.500 25.500 234.177 21.540 C 233.743 16.210, 235.595 15, 244.191 15 L 251 15 251 11 L 251 7 238.167 7 C 231.108 7, 225.033 7.300, 224.667 7.667 M 266 29.363 L 266 52 271 52 L 276 52 276 43.427 C 276 35.849, 276.200 34.892, 277.724 35.185 C 278.672 35.368, 281.319 38.812, 283.605 42.840 C 285.891 46.867, 288.201 50.601, 288.738 51.138 C 289.275 51.675, 292.019 51.976, 294.837 51.807 L 299.959 51.500 295.491 44 C 293.033 39.875, 291.017 35.963, 291.011 35.307 C 291.005 34.650, 292.343 33.320, 293.984 32.350 C 299.758 28.939, 301.700 20.300, 298.040 14.299 C 294.877 9.110, 291 7.755, 277.753 7.210 L 266 6.725 266 29.363 M 312 8.110 C 312 8.779, 315.036 14.990, 318.746 21.913 C 325.241 34.032, 325.510 34.816, 325.996 43 L 326.500 51.500 331.750 51.802 L 337 52.105 337 44.390 C 337 36.745, 337.066 36.549, 344.421 22.425 C 348.502 14.587, 351.577 7.910, 351.254 7.587 C 350.416 6.749, 342.709 6.889, 341.419 7.765 C 340.825 8.169, 338.827 11.875, 336.980 16 C 331.818 27.530, 332.156 27.501, 327.025 16.873 L 322.500 7.500 317.250 7.198 C 313.632 6.989, 312 7.273, 312 8.110 M 364.710 7.623 C 364.320 8.014, 364 18.158, 364 30.167 L 364 52 369 52 L 374 52 374.015 40.750 C 374.024 34.563, 374.435 28.860, 374.930 28.079 C 375.943 26.479, 376.410 27.443, 382.042 42.750 L 385.445 52 389.655 52 C 393.148 52, 393.984 51.616, 394.564 49.750 C 397.107 41.557, 403.313 27.076, 404.078 27.548 C 404.585 27.862, 405 33.491, 405 40.059 L 405 52 410.019 52 L 415.038 52 414.769 29.750 L 414.500 7.500 408.669 7.500 L 402.838 7.500 396.669 22.449 C 393.276 30.671, 390.050 37.237, 389.500 37.040 C 388.950 36.843, 385.793 30.116, 382.483 22.091 L 376.467 7.500 370.944 7.206 C 367.906 7.045, 365.101 7.232, 364.710 7.623 M 435.768 9.059 C 430.921 11.618, 428.610 16.052, 429.328 21.413 C 430.048 26.777, 433.825 30.113, 442.419 32.973 C 449.386 35.292, 452.586 38.311, 451.386 41.436 C 449.808 45.549, 442.297 45.293, 440.026 41.048 C 439.171 39.450, 437.941 39, 434.433 39 C 429.031 39, 428.052 40.570, 430.663 45.043 C 433.332 49.615, 438.667 52.001, 446.210 51.996 C 453.499 51.992, 458.017 49.802, 460.451 45.094 C 464.374 37.508, 460.904 30.604, 451.377 27.040 C 442.234 23.619, 440 22.173, 440 19.674 C 440 18.423, 440.540 16.860, 441.200 16.200 C 443.116 14.284, 447.829 14.753, 449.232 17 C 450.224 18.588, 451.564 19, 455.741 19 C 460.207 19, 461 18.719, 461 17.135 C 461 14.385, 457.136 9.955, 453.364 8.379 C 448.595 6.386, 440.217 6.710, 435.768 9.059 M 22.488 17.250 C 22.241 17.938, 22.143 23.900, 22.270 30.500 L 22.500 42.500 27.702 42.801 C 34.295 43.182, 38.672 41.028, 40.579 36.466 C 43.611 29.207, 41.594 21.552, 35.701 17.960 C 32.017 15.713, 23.210 15.240, 22.488 17.250 M 276 22 L 276 28 281 28 C 288.705 28, 292.136 23.494, 288.443 18.223 C 287.159 16.389, 285.935 16, 281.443 16 L 276 16 276 22" stroke="none" fill="#348dc9" fill-rule="evenodd"/></svg>