<svg xmlns="http://www.w3.org/2000/svg" width="214" height="256" viewBox="0 0 214 256" version="1.1"><path d="M 108.500 139.340 C 86.144 152.265, 74.752 158.869, 35.750 181.516 L 17 192.403 17 214.625 L 17 236.847 19.574 239.905 C 23.843 244.979, 26.554 245.288, 62.123 244.753 C 94.308 244.269, 94.570 244.248, 106.287 241.192 C 140.675 232.225, 169.624 208.856, 184.783 177.828 C 188.773 169.660, 191.866 160.527, 190.949 159.621 C 189.961 158.645, 132.919 126.001, 132.235 126.021 C 131.831 126.032, 121.150 132.026, 108.500 139.340" stroke="none" fill="#e4953c" fill-rule="evenodd"/><path d="M 26.500 6.670 C 23.107 7.626, 19.320 10.814, 18.111 13.731 C 17.332 15.612, 17.046 23.451, 17.229 37.925 L 17.500 59.337 74.661 92.418 C 170.656 147.974, 190.296 159.100, 191.531 158.626 C 192.184 158.376, 193.570 153.970, 194.609 148.835 C 196.844 137.801, 197.104 114.244, 195.104 104.044 C 190.489 80.514, 179.890 60.115, 163.383 42.992 C 146.603 25.585, 125.398 13.850, 101.831 8.927 C 92.785 7.038, 87.582 6.728, 60 6.438 C 42.675 6.255, 27.600 6.360, 26.500 6.670 M 17 126.058 L 17 171.116 22.777 167.808 C 25.954 165.989, 43.499 155.950, 61.765 145.500 C 80.031 135.050, 94.845 126.091, 94.685 125.592 C 94.379 124.635, 19.122 81, 17.779 81 C 17.350 81, 17 101.276, 17 126.058" stroke="none" fill="#40acdf" fill-rule="evenodd"/></svg>